<svg width="154" height="52" viewBox="0 0 154 52" fill="none" xmlns="http://www.w3.org/2000/svg">
<path d="M153.762 37.8874C153.762 45.3453 147.652 51.4553 140.194 51.4553H13.5679C6.11003 51.4553 0 45.3453 0 37.8874V13.7618C0 6.30391 6.11003 0.193848 13.5679 0.193848H140.194C147.652 0.193848 153.762 6.30391 153.762 13.7618V37.8874Z" fill="#404040"/>
<path d="M58.5248 19.0435L57.8748 17.4435H54.8548L54.2048 19.0435H53.4048L56.0748 12.5435H56.6548L59.3248 19.0435H58.5248ZM55.1348 16.7435H57.5848L56.3548 13.7135L55.1348 16.7435ZM60.9735 19.0435L59.1635 14.4435H59.9135L61.3335 18.0535L62.7635 14.4435H63.5135L61.6835 19.0435H60.9735ZM67.9836 14.4435H68.7136V19.0435H67.9836V18.2135C67.6336 18.7635 67.0536 19.1235 66.2736 19.1235C64.9636 19.1235 64.0336 18.1135 64.0336 16.7435C64.0336 15.3635 64.9636 14.3735 66.2736 14.3735C67.0536 14.3735 67.6336 14.7235 67.9836 15.2735V14.4435ZM66.3636 18.4335C67.3536 18.4335 67.9836 17.7235 67.9836 16.7435C67.9836 15.7635 67.3536 15.0635 66.3636 15.0635C65.3836 15.0635 64.7336 15.7635 64.7336 16.7435C64.7336 17.7235 65.3836 18.4335 66.3636 18.4335ZM70.4046 13.4635C70.1846 13.4635 69.9646 13.2835 69.9646 13.0135C69.9646 12.7435 70.1846 12.5835 70.4046 12.5835C70.6246 12.5835 70.8446 12.7435 70.8446 13.0135C70.8446 13.2835 70.6246 13.4635 70.4046 13.4635ZM70.7646 19.0435H70.0446V14.4435H70.7746L70.7646 19.0435ZM72.8232 19.0435H72.1032V12.5435H72.8232V19.0435ZM77.8957 14.4435H78.6257V19.0435H77.8957V18.2135C77.5457 18.7635 76.9657 19.1235 76.1857 19.1235C74.8757 19.1235 73.9457 18.1135 73.9457 16.7435C73.9457 15.3635 74.8757 14.3735 76.1857 14.3735C76.9657 14.3735 77.5457 14.7235 77.8957 15.2735V14.4435ZM76.2757 18.4335C77.2657 18.4335 77.8957 17.7235 77.8957 16.7435C77.8957 15.7635 77.2657 15.0635 76.2757 15.0635C75.2957 15.0635 74.6457 15.7635 74.6457 16.7435C74.6457 17.7235 75.2957 18.4335 76.2757 18.4335ZM82.3067 14.3735C83.6167 14.3735 84.5567 15.3635 84.5567 16.7435C84.5567 18.1135 83.6167 19.1235 82.3067 19.1235C81.5267 19.1235 80.9467 18.7635 80.5967 18.2135V19.0435H79.8767V12.5435H80.5967V15.2735C80.9467 14.7235 81.5267 14.3735 82.3067 14.3735ZM82.2167 18.4335C83.1967 18.4335 83.8467 17.7235 83.8467 16.7435C83.8467 15.7635 83.1967 15.0635 82.2167 15.0635C81.2367 15.0635 80.5967 15.7635 80.5967 16.7435C80.5967 17.7235 81.2367 18.4335 82.2167 18.4335ZM86.3877 19.0435H85.6677V12.5435H86.3877V19.0435ZM89.7801 14.3635C91.1001 14.3635 91.9801 15.3735 91.9801 16.7435V16.9735H88.2101C88.3001 17.8935 88.9301 18.5035 89.8401 18.5035C90.5201 18.5035 90.9901 18.1935 91.2501 17.8035L91.7601 18.1735C91.3601 18.7635 90.6801 19.1335 89.8401 19.1335C88.4401 19.1335 87.5101 18.1135 87.5101 16.7435C87.5101 15.3735 88.4001 14.3635 89.7801 14.3635ZM89.7801 14.9635C88.8801 14.9635 88.3101 15.5735 88.2101 16.4735H91.3101C91.2101 15.6035 90.6401 14.9635 89.7801 14.9635ZM97.3013 19.1335C95.9213 19.1335 94.9613 18.1135 94.9613 16.7435C94.9613 15.3635 95.9213 14.3635 97.3013 14.3635C98.6813 14.3635 99.6413 15.3635 99.6413 16.7435C99.6413 18.1135 98.6813 19.1335 97.3013 19.1335ZM97.3013 18.4335C98.2713 18.4335 98.9113 17.7135 98.9113 16.7435C98.9113 15.7735 98.2713 15.0635 97.3013 15.0635C96.3313 15.0635 95.6813 15.7735 95.6813 16.7435C95.6813 17.7135 96.3313 18.4335 97.3013 18.4335ZM102.956 14.3735C103.876 14.3735 104.786 14.9135 104.786 16.2135V19.0435H104.066V16.3135C104.066 15.4335 103.446 15.0035 102.766 15.0035C102.076 15.0035 101.476 15.4335 101.476 16.3135V19.0435H100.756V14.4435H101.476V15.0635C101.826 14.5835 102.386 14.3735 102.956 14.3735ZM110.221 15.0135H109.121V17.8435C109.121 18.3335 109.421 18.4535 109.761 18.4535H110.171V19.0435H109.501C108.801 19.0435 108.391 18.6435 108.391 17.9435V15.0135H107.751V14.4435H108.391V13.0435H109.121V14.4435H110.221V15.0135ZM113.415 14.3735C114.335 14.3735 115.245 14.9135 115.245 16.2135V19.0435H114.525V16.3135C114.525 15.4335 113.905 15.0035 113.225 15.0035C112.535 15.0035 111.935 15.4335 111.935 16.3135V19.0435H111.215V12.5435H111.935V15.0635C112.285 14.5835 112.845 14.3735 113.415 14.3735ZM118.638 14.3635C119.958 14.3635 120.838 15.3735 120.838 16.7435V16.9735H117.068C117.158 17.8935 117.788 18.5035 118.698 18.5035C119.378 18.5035 119.848 18.1935 120.108 17.8035L120.618 18.1735C120.218 18.7635 119.538 19.1335 118.698 19.1335C117.298 19.1335 116.368 18.1135 116.368 16.7435C116.368 15.3735 117.258 14.3635 118.638 14.3635ZM118.638 14.9635C117.738 14.9635 117.168 15.5735 117.068 16.4735H120.168C120.068 15.6035 119.498 14.9635 118.638 14.9635Z" fill="white"/>
<path d="M60.4718 40.1946L59.3018 37.3146H53.8658L52.6958 40.1946H51.2558L56.0618 28.4946H57.1058L61.9118 40.1946H60.4718ZM54.3698 36.0546H58.7798L56.5658 30.6006L54.3698 36.0546ZM67.8417 31.7886C70.1997 31.7886 71.8917 33.6066 71.8917 36.0726C71.8917 38.5566 70.1997 40.3386 67.8417 40.3386C66.4377 40.3386 65.3937 39.7086 64.7637 38.7006V43.5066H63.4677V31.9146H64.7637V33.4266C65.3937 32.4186 66.4377 31.7886 67.8417 31.7886ZM67.6797 39.0966C69.4437 39.0966 70.6137 37.8366 70.6137 36.0726C70.6137 34.3086 69.4437 33.0306 67.6797 33.0306C65.9157 33.0306 64.7637 34.3086 64.7637 36.0726C64.7637 37.8366 65.9157 39.0966 67.6797 39.0966ZM78.2655 31.7886C80.6235 31.7886 82.3155 33.6066 82.3155 36.0726C82.3155 38.5566 80.6235 40.3386 78.2655 40.3386C76.8615 40.3386 75.8175 39.7086 75.1875 38.7006V43.5066H73.8915V31.9146H75.1875V33.4266C75.8175 32.4186 76.8615 31.7886 78.2655 31.7886ZM78.1035 39.0966C79.8675 39.0966 81.0375 37.8366 81.0375 36.0726C81.0375 34.3086 79.8675 33.0306 78.1035 33.0306C76.3395 33.0306 75.1875 34.3086 75.1875 36.0726C75.1875 37.8366 76.3395 39.0966 78.1035 39.0966ZM87.5588 37.6926L88.6748 36.9546C89.0888 38.0526 90.5288 39.0426 92.4728 39.0426C94.4888 39.0426 95.3348 38.2866 95.3348 36.9366C95.3348 35.4066 93.0488 35.0466 91.9868 34.7406C90.8528 34.4346 87.9728 33.9486 87.9728 31.5366C87.9728 29.3406 89.8448 28.2966 92.3468 28.2966C94.5068 28.2966 96.2348 29.3406 96.6668 30.6186L95.5508 31.2846C95.2268 30.4206 93.8948 29.6466 92.2028 29.6466C90.4568 29.6466 89.5028 30.3306 89.5028 31.4826C89.5028 32.9226 91.5908 33.2286 92.7428 33.5346C93.7868 33.8406 96.8288 34.4526 96.8288 36.8826C96.8288 39.1866 95.1548 40.3926 92.3468 40.3926C89.8268 40.3926 88.1168 39.2226 87.5588 37.6926ZM102.635 32.9406H100.655V38.0346C100.655 38.9166 101.195 39.1326 101.807 39.1326H102.545V40.1946H101.339C100.079 40.1946 99.3414 39.4746 99.3414 38.2146V32.9406H98.1894V31.9146H99.3414V29.3946H100.655V31.9146H102.635V32.9406ZM107.963 40.3566C105.479 40.3566 103.751 38.5206 103.751 36.0546C103.751 33.5706 105.479 31.7706 107.963 31.7706C110.447 31.7706 112.175 33.5706 112.175 36.0546C112.175 38.5206 110.447 40.3566 107.963 40.3566ZM107.963 39.0966C109.709 39.0966 110.861 37.8006 110.861 36.0546C110.861 34.3086 109.709 33.0306 107.963 33.0306C106.217 33.0306 105.047 34.3086 105.047 36.0546C105.047 37.8006 106.217 39.0966 107.963 39.0966ZM115.477 33.4446C116.107 32.3106 117.223 31.8066 118.393 31.7886V33.0306C117.115 33.0486 115.477 33.7146 115.477 35.7306V40.1946H114.181V31.9146H115.477V33.4446ZM123.323 31.7706C125.699 31.7706 127.283 33.5886 127.283 36.0546V36.4686H120.497C120.659 38.1246 121.793 39.2226 123.431 39.2226C124.655 39.2226 125.501 38.6646 125.969 37.9626L126.887 38.6286C126.167 39.6906 124.943 40.3566 123.431 40.3566C120.911 40.3566 119.237 38.5206 119.237 36.0546C119.237 33.5886 120.839 31.7706 123.323 31.7706ZM123.323 32.8506C121.703 32.8506 120.677 33.9486 120.497 35.5686H126.077C125.897 34.0026 124.871 32.8506 123.323 32.8506Z" fill="white"/>
<path d="M26.9336 10.9314H11.0296C9.72668 10.9314 8.6709 11.9871 8.6709 13.29V40.2012C8.6709 41.5041 9.72668 42.5598 11.0296 42.5598H26.9336C28.2365 42.5598 29.2923 41.5041 29.2923 40.2012V13.29C29.2923 12.0096 28.2141 10.9314 26.9336 10.9314Z" fill="white"/>
<path d="M28.1466 14.7278H9.79395V36.9216H28.1466V14.7278Z" fill="#404040"/>
<path d="M22.7333 12.3462H15.2081C14.916 12.3462 14.6465 12.5933 14.6465 12.9078C14.6465 13.2223 14.8936 13.4694 15.2081 13.4694H22.7333C23.0253 13.4694 23.2949 13.2223 23.2949 12.9078C23.2949 12.6158 23.0478 12.3462 22.7333 12.3462Z" fill="#6639A6"/>
<path d="M17.1846 39.5947C17.1846 38.6063 17.9933 37.7751 18.9816 37.7751C19.97 37.7751 20.8012 38.5838 20.8012 39.5947C20.8012 40.5831 19.9925 41.3917 18.9816 41.3917C17.9933 41.4142 17.1846 40.6055 17.1846 39.5947Z" fill="#6639A6"/>
</svg>
