<svg width="38" height="38" viewBox="0 0 38 38" fill="none" xmlns="http://www.w3.org/2000/svg">
<rect x="0.975586" y="0.194092" width="37.024" height="37.024" rx="10.68" fill="#F6F6F6"/>
<path d="M15.8382 15.4381V24.4661H13.4268V15.4381H15.8382ZM13.2767 13.0852C13.2767 12.7348 13.399 12.4455 13.6438 12.2174C13.8885 11.9894 14.2167 11.8753 14.6283 11.8753C15.0344 11.8753 15.3598 11.9894 15.6046 12.2174C15.8549 12.4455 15.98 12.7348 15.98 13.0852C15.98 13.4356 15.8549 13.7249 15.6046 13.9529C15.3598 14.181 15.0344 14.295 14.6283 14.295C14.2167 14.295 13.8885 14.181 13.6438 13.9529C13.399 13.7249 13.2767 13.4356 13.2767 13.0852ZM20.5187 17.3655V24.4661H18.1157V15.4381H20.3685L20.5187 17.3655ZM20.1683 19.635H19.5174C19.5174 18.9675 19.6037 18.3668 19.7761 17.8328C19.9485 17.2932 20.1905 16.8343 20.502 16.4561C20.8135 16.0723 21.1834 15.7802 21.6117 15.58C22.0456 15.3742 22.5295 15.2713 23.0635 15.2713C23.4863 15.2713 23.8729 15.3324 24.2233 15.4548C24.5738 15.5772 24.8741 15.7719 25.1244 16.0389C25.3803 16.3059 25.575 16.6591 25.7085 17.0985C25.8476 17.538 25.9171 18.0748 25.9171 18.7089V24.4661H23.4974V18.7005C23.4974 18.3 23.4418 17.9885 23.3305 17.766C23.2193 17.5435 23.0552 17.3878 22.8383 17.2988C22.6269 17.2042 22.3654 17.1569 22.0539 17.1569C21.7313 17.1569 21.4504 17.2209 21.2112 17.3488C20.9776 17.4768 20.7829 17.6548 20.6272 17.8828C20.477 18.1053 20.3629 18.3668 20.2851 18.6672C20.2072 18.9675 20.1683 19.2902 20.1683 19.635Z" fill="#2A2F2F"/>
</svg>
